<svg width="24" height="24" viewBox="0 0 24 24" fill="none" xmlns="http://www.w3.org/2000/svg">
<mask id="mask0_32_7" style="mask-type:alpha" maskUnits="userSpaceOnUse" x="0" y="0" width="24" height="24">
<rect width="24" height="24" fill="#D9D9D9"/>
</mask>
<g mask="url(#mask0_32_7)">
<path d="M12 17V15.5H14.5V13H16V17H12ZM8 11V7H12V8.5H9.5V11H8ZM7 23C6.45 23 5.97917 22.8042 5.5875 22.4125C5.19583 22.0208 5 21.55 5 21V3C5 2.45 5.19583 1.97917 5.5875 1.5875C5.97917 1.19583 6.45 1 7 1H17C17.55 1 18.0208 1.19583 18.4125 1.5875C18.8042 1.97917 19 2.45 19 3V21C19 21.55 18.8042 22.0208 18.4125 22.4125C18.0208 22.8042 17.55 23 17 23H7ZM7 20V21H17V20H7ZM7 18H17V6H7V18ZM7 4H17V3H7V4Z" fill="#1C1B1F"/>
</g>
</svg>
