<svg width="24" height="24" viewBox="0 0 24 24" fill="none" xmlns="http://www.w3.org/2000/svg">
<mask id="mask0_23_19" style="mask-type:alpha" maskUnits="userSpaceOnUse" x="0" y="0" width="24" height="24">
<rect width="24" height="24" fill="#D9D9D9"/>
</mask>
<g mask="url(#mask0_23_19)">
<path d="M6.35 15.35L4.25 13.2C5.23333 12.2167 6.3875 11.4375 7.7125 10.8625C9.0375 10.2875 10.4667 10 12 10C13.5333 10 14.9625 10.2917 16.2875 10.875C17.6125 11.4583 18.7667 12.25 19.75 13.25L17.65 15.35C16.9167 14.6167 16.0667 14.0417 15.1 13.625C14.1333 13.2083 13.1 13 12 13C10.9 13 9.86667 13.2083 8.9 13.625C7.93333 14.0417 7.08333 14.6167 6.35 15.35ZM2.1 11.1L0 9C1.53333 7.43333 3.325 6.20833 5.375 5.325C7.425 4.44167 9.63333 4 12 4C14.3667 4 16.575 4.44167 18.625 5.325C20.675 6.20833 22.4667 7.43333 24 9L21.9 11.1C20.6167 9.81667 19.1292 8.8125 17.4375 8.0875C15.7458 7.3625 13.9333 7 12 7C10.0667 7 8.25417 7.3625 6.5625 8.0875C4.87083 8.8125 3.38333 9.81667 2.1 11.1ZM12 21L15.525 17.45C15.075 17 14.55 16.6458 13.95 16.3875C13.35 16.1292 12.7 16 12 16C11.3 16 10.65 16.1292 10.05 16.3875C9.45 16.6458 8.925 17 8.475 17.45L12 21Z" fill="#1C1B1F"/>
</g>
</svg>
