<svg width="24" height="24" viewBox="0 0 24 24" fill="none" xmlns="http://www.w3.org/2000/svg">
<mask id="mask0_23_13" style="mask-type:alpha" maskUnits="userSpaceOnUse" x="0" y="0" width="24" height="24">
<rect width="24" height="24" fill="#D9D9D9"/>
</mask>
<g mask="url(#mask0_23_13)">
<path d="M21.9 11.1C20.6167 9.81672 19.1292 8.81255 17.4375 8.08755C15.7458 7.36255 13.9333 7.00005 12 7.00005C11.65 7.00005 11.3125 7.01255 10.9875 7.03755C10.6625 7.06255 10.3333 7.10005 10 7.15005L7.45 4.60005C8.18333 4.40005 8.92917 4.25005 9.6875 4.15005C10.4458 4.05005 11.2167 4.00005 12 4.00005C14.3667 4.00005 16.575 4.44172 18.625 5.32505C20.675 6.20838 22.4667 7.41672 24 8.95005L21.9 11.1ZM17.9 15.05L12.85 10C14.2 10.1334 15.4625 10.475 16.6375 11.025C17.8125 11.575 18.85 12.3 19.75 13.2L17.9 15.05ZM19.75 22.6L10.35 13.1501C9.56667 13.3334 8.8375 13.6084 8.1625 13.975C7.4875 14.3417 6.88333 14.8 6.35 15.35L4.25 13.2C4.78333 12.6667 5.35833 12.2 5.975 11.8C6.59167 11.4 7.25 11.05 7.95 10.75L5.7 8.50005C5.01667 8.85005 4.37917 9.23755 3.7875 9.66255C3.19583 10.0875 2.63333 10.5667 2.1 11.1L0 8.95005C0.533333 8.41672 1.0875 7.93755 1.6625 7.51255C2.2375 7.08755 2.85 6.68338 3.5 6.30005L1.4 4.20005L2.8 2.80005L21.2 21.2001L19.75 22.6ZM12 21L8.475 17.4501C8.925 17.0001 9.45 16.6459 10.05 16.3876C10.65 16.1292 11.3 16 12 16C12.7 16 13.35 16.1292 13.95 16.3876C14.55 16.6459 15.075 17.0001 15.525 17.4501L12 21Z" fill="#1C1B1F"/>
</g>
</svg>
