<svg width="24" height="24" viewBox="0 0 24 24" fill="none" xmlns="http://www.w3.org/2000/svg">
<mask id="mask0_53515_27500" style="mask-type:alpha" maskUnits="userSpaceOnUse" x="0" y="0" width="24" height="24">
<rect width="24" height="24" fill="#D9D9D9"/>
</mask>
<g mask="url(#mask0_53515_27500)">
<path d="M5 11V10C5 8.8 5.27083 7.70417 5.8125 6.7125C6.35417 5.72083 7.08333 4.90833 8 4.275L6.125 2.4L7 1.5L9.125 3.625C9.55833 3.425 10.0208 3.27083 10.5125 3.1625C11.0042 3.05417 11.5 3 12 3C12.5 3 12.9958 3.05417 13.4875 3.1625C13.9792 3.27083 14.4417 3.425 14.875 3.625L17 1.5L17.875 2.4L16 4.275C16.9167 4.90833 17.6458 5.72083 18.1875 6.7125C18.7292 7.70417 19 8.8 19 10V11H5ZM15 9C15.2833 9 15.5208 8.90417 15.7125 8.7125C15.9042 8.52083 16 8.28333 16 8C16 7.71667 15.9042 7.47917 15.7125 7.2875C15.5208 7.09583 15.2833 7 15 7C14.7167 7 14.4792 7.09583 14.2875 7.2875C14.0958 7.47917 14 7.71667 14 8C14 8.28333 14.0958 8.52083 14.2875 8.7125C14.4792 8.90417 14.7167 9 15 9ZM9 9C9.28333 9 9.52083 8.90417 9.7125 8.7125C9.90417 8.52083 10 8.28333 10 8C10 7.71667 9.90417 7.47917 9.7125 7.2875C9.52083 7.09583 9.28333 7 9 7C8.71667 7 8.47917 7.09583 8.2875 7.2875C8.09583 7.47917 8 7.71667 8 8C8 8.28333 8.09583 8.52083 8.2875 8.7125C8.47917 8.90417 8.71667 9 9 9ZM12 23C10.05 23 8.39583 22.3208 7.0375 20.9625C5.67917 19.6042 5 17.95 5 16V12H19V16C19 17.95 18.3208 19.6042 16.9625 20.9625C15.6042 22.3208 13.95 23 12 23Z" fill="#1C1B1F"/>
</g>
</svg>
