<svg width="24" height="24" viewBox="0 0 24 24" fill="none" xmlns="http://www.w3.org/2000/svg">
<mask id="mask0_46_13" style="mask-type:alpha" maskUnits="userSpaceOnUse" x="0" y="0" width="24" height="24">
<rect width="24" height="24" fill="#D9D9D9"/>
</mask>
<g mask="url(#mask0_46_13)">
<path d="M21.775 18.95L20 17.175V7.99998H10.85L6.85 3.99998H9.7L11.7 5.99998H20C20.55 5.99998 21.0208 6.19581 21.4125 6.58748C21.8042 6.97914 22 7.44998 22 7.99998V18C22 18.1833 21.9833 18.3541 21.95 18.5125C21.9167 18.6708 21.8583 18.8166 21.775 18.95ZM20.475 23.3L17.175 20H4C3.45 20 2.97916 19.8041 2.5875 19.4125C2.19583 19.0208 2 18.55 2 18V5.99998C2 5.44998 2.19583 4.97914 2.5875 4.58748C2.97916 4.19581 3.45 3.99998 4 3.99998L6 5.99998H4V18H15.175L0.699997 3.49998L2.1 2.09998L21.9 21.9L20.475 23.3Z" fill="#1C1B1F"/>
</g>
</svg>
