<svg width="24" height="24" viewBox="0 0 24 24" fill="none" xmlns="http://www.w3.org/2000/svg">
<mask id="mask0_36_7" style="mask-type:alpha" maskUnits="userSpaceOnUse" x="0" y="0" width="24" height="24">
<rect width="24" height="24" fill="#D9D9D9"/>
</mask>
<g mask="url(#mask0_36_7)">
<path d="M20.475 23.3L18.175 21H5.00001C4.45001 21 3.97918 20.8041 3.58751 20.4125C3.19585 20.0208 3.00001 19.55 3.00001 19V5.82498L0.700012 3.49998L2.10001 2.09998L21.9 21.9L20.475 23.3ZM5.00001 19H16.175L14.175 17H6.00001L9.00001 13L11 15.725L11.85 14.675L5.00001 7.82498V19ZM21 18.175L19 16.175V4.99998H7.82501L5.82501 2.99998H19C19.55 2.99998 20.0208 3.19581 20.4125 3.58748C20.8042 3.97914 21 4.44998 21 4.99998V18.175Z" fill="#1C1B1F"/>
</g>
</svg>
