<svg width="24" height="24" viewBox="0 0 24 24" fill="none" xmlns="http://www.w3.org/2000/svg">
<mask id="mask0_53517_27507" style="mask-type:alpha" maskUnits="userSpaceOnUse" x="0" y="0" width="24" height="24">
<rect width="24" height="24" fill="#D9D9D9"/>
</mask>
<g mask="url(#mask0_53517_27507)">
<path d="M20.5002 23.3L0.700195 3.5L2.1002 2.1L21.9002 21.9L20.5002 23.3ZM5.0002 6.425L7.0002 8.425V18H16.6002L19.0002 20.4V21C19.0002 21.55 18.8044 22.0208 18.4127 22.4125C18.021 22.8042 17.5502 23 17.0002 23H7.0002C6.4502 23 5.97936 22.8042 5.5877 22.4125C5.19603 22.0208 5.0002 21.55 5.0002 21V6.425ZM7.0002 20V21H17.0002V20H7.0002ZM19.0002 3V16.15L17.0002 14.15V6H8.8252L5.1502 2.3C5.31686 1.91667 5.5627 1.60417 5.8877 1.3625C6.2127 1.12083 6.58353 1 7.0002 1H17.0002C17.5502 1 18.021 1.19583 18.4127 1.5875C18.8044 1.97917 19.0002 2.45 19.0002 3ZM7.0002 4H17.0002V3H7.0002V4Z" fill="#1C1B1F"/>
</g>
</svg>
