<svg width="25" height="25" viewBox="0 0 25 25" fill="none" xmlns="http://www.w3.org/2000/svg">
<mask id="mask0_53515_27476" style="mask-type:alpha" maskUnits="userSpaceOnUse" x="0" y="0" width="25" height="25">
<rect x="0.0625" y="0.4375" width="24" height="24" fill="#D9D9D9"/>
</mask>
<g mask="url(#mask0_53515_27476)">
<path d="M7.0625 23.4375C6.5125 23.4375 6.04167 23.2417 5.65 22.85C5.25833 22.4583 5.0625 21.9875 5.0625 21.4375V3.4375C5.0625 2.8875 5.25833 2.41667 5.65 2.025C6.04167 1.63333 6.5125 1.4375 7.0625 1.4375H17.0625C17.6125 1.4375 18.0833 1.63333 18.475 2.025C18.8667 2.41667 19.0625 2.8875 19.0625 3.4375V21.4375C19.0625 21.9875 18.8667 22.4583 18.475 22.85C18.0833 23.2417 17.6125 23.4375 17.0625 23.4375H7.0625ZM7.0625 20.4375V21.4375H17.0625V20.4375H7.0625ZM7.0625 18.4375H17.0625V6.4375H7.0625V18.4375ZM7.0625 4.4375H17.0625V3.4375H7.0625V4.4375Z" fill="#1C1B1F"/>
</g>
</svg>
